<svg width="105" height="28" viewBox="0 0 105 28" fill="none" xmlns="http://www.w3.org/2000/svg">
<g clip-path="url(#clip0_1885_2233)">
<path d="M0.575317 28H10.0685C14.57 28 18.2192 24.3508 18.2192 19.8493H8.726C4.2245 19.8493 0.575317 23.4985 0.575317 28Z" fill="#F22BB2"/>
<path d="M1 8.15069V20.137C5.5015 20.137 9.15069 16.4878 9.15069 11.9863V0C4.64919 0 1 3.64919 1 8.15069Z" fill="#8C30F5"/>
<path d="M27.4247 0H17.9315C13.43 0 9.78082 3.64919 9.78082 8.15068H19.274C23.7755 8.15068 27.4247 4.5015 27.4247 0Z" fill="#FE9A22"/>
<path d="M27.4247 19.3699V7.38358C22.9232 7.38358 19.274 11.0328 19.274 15.5343V27.5206C23.7755 27.5206 27.4247 23.8714 27.4247 19.3699Z" fill="#2EC5CE"/>
<path d="M40.9 17.42V6.99999V6.49999H40.4H37.2H36.7V6.99999V21V21.5H37.2H45.4H45.9V21V17.92V17.9037C46.612 20.1701 48.5657 21.78 50.8917 21.78C51.8724 21.78 52.7009 21.5521 53.3717 21.1362V21.5H53.8717H56.8717H57.3717V21V11V10.5H56.8717H53.8717H53.3717V10.8637C52.7009 10.4479 51.8724 10.22 50.8917 10.22C47.955 10.22 45.6117 12.7863 45.6117 16C45.6117 16.4907 45.6664 16.9663 45.7694 17.42H45.4H40.9ZM62.5727 10.822V10.5H62.0727H59.0727H58.5727V11V21V21.5H59.0727H62.0727H62.5727V21V15.54C62.5727 14.9162 62.7385 14.5426 62.949 14.3257C63.158 14.1103 63.4785 13.98 63.9327 13.98C64.3144 13.98 64.6155 14.0944 64.8178 14.2871C65.0151 14.4749 65.1727 14.7887 65.1727 15.3V21V21.5H65.6727H68.6727H69.1727V21V14.86C69.1727 13.4007 68.7055 12.233 67.9175 11.4278C67.1314 10.6244 66.0628 10.22 64.9327 10.22C64.0165 10.22 63.2084 10.4335 62.5727 10.822ZM77.9928 6.49999H77.4928V6.99999V10.8637C76.822 10.4479 75.9935 10.22 75.0128 10.22C72.0761 10.22 69.7328 12.7863 69.7328 16C69.7328 19.2137 72.0761 21.78 75.0128 21.78C75.9935 21.78 76.822 21.5521 77.4928 21.1362V21.5H77.9928H80.9928H81.4928V21V6.99999V6.49999H80.9928H77.9928ZM82.6938 21V21.5H83.1938H86.1938H86.6938V21V11V10.5H86.1938H85.4194C86.3277 10.1913 86.9938 9.32339 86.9938 8.31999C86.9938 7.06385 85.9499 6.01999 84.6938 6.01999C83.4376 6.01999 82.3938 7.06385 82.3938 8.31999C82.3938 9.32339 83.0598 10.1913 83.9681 10.5H83.1938H82.6938V11V21ZM93.8446 10.098L94.3891 10.1466V9.59999V6.71999V6.2492L93.9191 6.22089C92.1763 6.1159 90.8071 6.49954 89.8733 7.36908C89.0456 8.13993 88.6294 9.22801 88.5452 10.5H87.6891H87.1891V11V13.88V14.38H87.6891H88.5291V21V21.5H89.0291H92.0291H92.5291V21V14.38H93.8891H94.3891V13.88V12.557L97.7227 20.5477C97.5395 20.9931 97.3356 21.2509 97.0945 21.4111C96.8174 21.5952 96.4172 21.7 95.7613 21.7H95.2613V22.2V25V25.4756L95.7363 25.4994C97.2193 25.5735 98.4881 25.2779 99.5395 24.4963C100.583 23.7207 101.354 22.5098 101.933 20.8662C101.933 20.8662 101.933 20.8661 101.933 20.8661L105.353 11.1662L105.588 10.5H104.881H101.681H101.312L101.203 10.8532L99.7619 15.5453L98.0513 10.8295L97.9318 10.5H97.5813H94.3891H94.2813H93.8891H93.5309H92.6107C92.6652 10.3711 92.7406 10.2943 92.8172 10.243C92.9997 10.1208 93.3241 10.0515 93.8446 10.098ZM51.4917 17.94C50.9174 17.94 50.4552 17.7463 50.1378 17.4289C49.8213 17.1124 49.6117 16.6357 49.6117 16C49.6117 15.3643 49.8213 14.8876 50.1378 14.571C50.4552 14.2537 50.9174 14.06 51.4917 14.06C52.0661 14.06 52.5283 14.2537 52.8457 14.571C53.1622 14.8876 53.3717 15.3643 53.3717 16C53.3717 16.6357 53.1622 17.1124 52.8457 17.4289C52.5283 17.7463 52.0661 17.94 51.4917 17.94ZM75.6128 17.94C75.0384 17.94 74.5762 17.7463 74.2589 17.4289C73.9424 17.1124 73.7328 16.6357 73.7328 16C73.7328 15.3643 73.9424 14.8876 74.2589 14.571C74.5762 14.2537 75.0384 14.06 75.6128 14.06C76.1872 14.06 76.6494 14.2537 76.9668 14.571C77.2833 14.8876 77.4928 15.3643 77.4928 16C77.4928 16.6357 77.2833 17.1124 76.9668 17.4289C76.6494 17.7463 76.1872 17.94 75.6128 17.94Z" fill="#0B0D17" stroke="black"/>
</g>
<defs>
<clipPath id="clip0_1885_2233">
<rect width="105" height="28" fill="white"/>
</clipPath>
</defs>
</svg>
