<svg width="290" height="48" viewBox="0 0 290 48" fill="none" xmlns="http://www.w3.org/2000/svg">
<g clip-path="url(#clip0_1860_2239)" filter="url(#filter0_d_1860_2239)">
<g clip-path="url(#clip1_1860_2239)">
<path d="M134 3.05176e-05H9C6.23858 3.05176e-05 4 2.23861 4 5.00003V35C4 37.7615 6.23858 40 9 40H134C136.761 40 139 37.7615 139 35V5.00003C139 2.23861 136.761 3.05176e-05 134 3.05176e-05Z" fill="black"/>
<path d="M134 0.800044C135.114 0.801331 136.181 1.24427 136.968 2.03169C137.756 2.81911 138.199 3.8867 138.2 5.00024V35.0002C138.199 36.1138 137.756 37.1814 136.968 37.9688C136.181 38.7562 135.114 39.1991 134 39.2004H9C7.88645 39.1992 6.81888 38.7562 6.0315 37.9688C5.24412 37.1814 4.80123 36.1138 4.8 35.0002V5.00024C4.80121 3.88669 5.24409 2.81909 6.03148 2.03166C6.81886 1.24424 7.88644 0.801309 9 0.800044H134ZM134 0.000244141H9C7.67511 0.00412224 6.40559 0.532152 5.46875 1.46899C4.53191 2.40584 4.00388 3.67535 4 5.00024V35.0002C4.00388 36.3251 4.53191 37.5947 5.46875 38.5315C6.40559 39.4683 7.67511 39.9964 9 40.0002H134C135.325 39.9964 136.594 39.4683 137.531 38.5315C138.468 37.5947 138.996 36.3251 139 35.0002V5.00024C138.996 3.67535 138.468 2.40584 137.531 1.46899C136.594 0.532152 135.325 0.00412224 134 0.000244141Z" fill="#A6A6A6"/>
<path d="M51.4184 10.2433C51.4366 10.6103 51.3799 10.9771 51.2518 11.3214C51.1237 11.6658 50.9268 11.9804 50.6732 12.2462C50.389 12.541 50.0457 12.7724 49.6659 12.9254C49.2861 13.0784 48.8783 13.1494 48.4691 13.1339C48.0573 13.1376 47.649 13.059 47.268 12.9026C46.8871 12.7462 46.5412 12.5152 46.2508 12.2233C45.9604 11.9313 45.7313 11.5842 45.5769 11.2024C45.4226 10.8207 45.3461 10.4119 45.352 10.0001C45.3462 9.58837 45.4227 9.17959 45.577 8.79781C45.7314 8.41603 45.9605 8.06895 46.2509 7.77695C46.5413 7.48496 46.8871 7.25395 47.268 7.09748C47.649 6.94102 48.0573 6.86226 48.4691 6.86584C48.8925 6.86456 49.3116 6.95016 49.7006 7.11734C50.0619 7.26378 50.3834 7.49348 50.6391 7.78774L50.1117 8.31554C49.9107 8.07899 49.6581 7.89178 49.3733 7.76834C49.0885 7.64491 48.7791 7.58856 48.4691 7.60364C48.157 7.60202 47.8478 7.66341 47.56 7.78412C47.2722 7.90483 47.0118 8.08239 46.7942 8.30615C46.5767 8.52991 46.4065 8.79527 46.2939 9.08635C46.1814 9.37743 46.1287 9.68823 46.1391 10.0001C46.1317 10.4673 46.2631 10.9262 46.5168 11.3186C46.7705 11.711 47.135 12.0192 47.5641 12.2041C47.9932 12.3891 48.4676 12.4425 48.927 12.3575C49.3865 12.2725 49.8104 12.0529 50.1449 11.7267C50.4528 11.395 50.6313 10.9637 50.6478 10.5113H48.4691V9.79064H51.3764C51.4039 9.93998 51.4179 10.0915 51.4184 10.2433Z" fill="white" stroke="white" stroke-width="0.2" stroke-miterlimit="10"/>
<path d="M56.0277 7.73742H53.2953V9.63972H55.7592V10.3605H53.2953V12.2628H56.0277V13.0001H52.5248V7.00012H56.0277V7.73742Z" fill="white" stroke="white" stroke-width="0.2" stroke-miterlimit="10"/>
<path d="M59.2787 13.0001H58.5072V7.73742H56.8314V7.00012H60.9545V7.73742H59.2787V13.0001Z" fill="white" stroke="white" stroke-width="0.2" stroke-miterlimit="10"/>
<path d="M63.9379 13.0001V7.00012H64.7084V13.0001H63.9379Z" fill="white" stroke="white" stroke-width="0.2" stroke-miterlimit="10"/>
<path d="M68.1283 13.0001H67.3568V7.73742H65.6811V7.00012H69.8041V7.73742H68.1283V13.0001Z" fill="white" stroke="white" stroke-width="0.2" stroke-miterlimit="10"/>
<path d="M77.6093 12.2247C77.0253 12.807 76.2343 13.1339 75.4096 13.1339C74.5849 13.1339 73.7939 12.807 73.2099 12.2247C72.921 11.9321 72.6939 11.5844 72.542 11.2022C72.3902 10.8201 72.3168 10.4113 72.3261 10.0001C72.3168 9.58903 72.3902 9.18024 72.542 8.79807C72.6939 8.41591 72.921 8.06817 73.2099 7.77554C73.4986 7.48681 73.8413 7.25784 74.2186 7.10174C74.5958 6.94565 75.0002 6.86548 75.4085 6.86585C75.8167 6.86621 76.2209 6.94709 76.5979 7.10386C76.9749 7.26062 77.3173 7.4902 77.6054 7.77944C77.8945 8.0713 78.1221 8.41826 78.2746 8.79973C78.4271 9.1812 78.5014 9.58941 78.4931 10.0001C78.5022 10.4112 78.4286 10.8199 78.2768 11.2021C78.125 11.5842 77.898 11.932 77.6093 12.2247ZM73.7792 11.7223C74.2117 12.1541 74.7979 12.3967 75.4091 12.3967C76.0203 12.3967 76.6065 12.1541 77.039 11.7223C77.2608 11.4953 77.4343 11.2256 77.5489 10.9296C77.6635 10.6336 77.717 10.3174 77.706 10.0001C77.717 9.6829 77.6635 9.36673 77.5489 9.07072C77.4343 8.77472 77.2608 8.50503 77.039 8.27794C76.6065 7.84615 76.0203 7.60363 75.4091 7.60363C74.7979 7.60363 74.2117 7.84615 73.7792 8.27794C73.5577 8.50521 73.3845 8.77495 73.2701 9.07093C73.1556 9.36691 73.1022 9.68299 73.1132 10.0001C73.1022 10.3173 73.1556 10.6334 73.2701 10.9294C73.3845 11.2253 73.5577 11.4951 73.7792 11.7223Z" fill="white" stroke="white" stroke-width="0.2" stroke-miterlimit="10"/>
<path d="M79.5751 13.0001V7.00012H80.5136L83.4296 11.6676H83.4628L83.4296 10.5113V7.00012H84.2011V13.0001H83.3964L80.3456 8.10652H80.3124L80.3456 9.26282V13.0001H79.5751Z" fill="white" stroke="white" stroke-width="0.2" stroke-miterlimit="10"/>
<path d="M72.1358 21.7517C71.2953 21.7549 70.4746 22.0071 69.7773 22.4764C69.08 22.9456 68.5373 23.611 68.2179 24.3885C67.8984 25.1659 67.8165 26.0206 67.9825 26.8445C68.1484 27.6685 68.5547 28.4248 69.1502 29.018C69.7457 29.6113 70.5035 30.0147 71.3281 30.1775C72.1527 30.3403 73.0071 30.2551 73.7833 29.9328C74.5595 29.6104 75.2228 29.0652 75.6895 28.3661C76.1561 27.667 76.4051 26.8454 76.4051 26.0048C76.4134 25.4427 76.3085 24.8846 76.0966 24.3638C75.8848 23.8429 75.5704 23.3701 75.1721 22.9733C74.7737 22.5765 74.2997 22.2638 73.7781 22.054C73.2564 21.8441 72.698 21.7413 72.1358 21.7517ZM72.1358 28.5825C71.6182 28.6194 71.1014 28.4997 70.6528 28.2388C70.2043 27.9779 69.8446 27.588 69.6207 27.1198C69.3968 26.6517 69.3191 26.1269 69.3976 25.614C69.4761 25.101 69.7072 24.6236 70.0608 24.2438C70.4145 23.864 70.8743 23.5995 71.3804 23.4847C71.8865 23.3699 72.4154 23.4102 72.8983 23.6002C73.3812 23.7902 73.7957 24.1212 74.0878 24.5501C74.3799 24.979 74.5362 25.4859 74.5362 26.0048C74.5519 26.3327 74.5019 26.6603 74.389 26.9686C74.2762 27.2768 74.1028 27.5593 73.8792 27.7995C73.6555 28.0397 73.386 28.2327 73.0866 28.3672C72.7872 28.5017 72.4639 28.5749 72.1358 28.5825ZM62.8224 21.7517C61.9819 21.7549 61.1612 22.007 60.4638 22.4763C59.7665 22.9456 59.2239 23.6109 58.9044 24.3884C58.585 25.1658 58.503 26.0205 58.6689 26.8445C58.8349 27.6685 59.2412 28.4248 59.8367 29.018C60.4321 29.6112 61.19 30.0147 62.0146 30.1775C62.8392 30.3403 63.6936 30.2552 64.4698 29.9328C65.246 29.6104 65.9093 29.0652 66.376 28.3661C66.8426 27.667 67.0916 26.8454 67.0916 26.0048C67.0999 25.4427 66.995 24.8846 66.7831 24.3638C66.5713 23.843 66.2569 23.3701 65.8586 22.9733C65.4603 22.5765 64.9862 22.2639 64.4646 22.054C63.943 21.8441 63.3845 21.7414 62.8224 21.7517ZM62.8224 28.5825C62.3048 28.6194 61.788 28.4997 61.3394 28.2388C60.8909 27.9779 60.5312 27.588 60.3073 27.1198C60.0834 26.6517 60.0057 26.1269 60.0842 25.614C60.1627 25.101 60.3938 24.6236 60.7474 24.2438C61.1011 23.864 61.5609 23.5995 62.067 23.4847C62.573 23.3699 63.102 23.4102 63.5849 23.6002C64.0678 23.7902 64.4823 24.1212 64.7744 24.5501C65.0665 24.979 65.2228 25.4859 65.2228 26.0048C65.2385 26.3327 65.1885 26.6604 65.0757 26.9686C64.9628 27.2768 64.7895 27.5593 64.5658 27.7995C64.3421 28.0397 64.0726 28.2327 63.7732 28.3672C63.4738 28.5017 63.1505 28.5749 62.8224 28.5825ZM51.7436 23.0567V24.861H56.0613C55.999 25.7073 55.6527 26.5078 55.0785 27.1326C54.6458 27.5737 54.1255 27.9191 53.5511 28.1466C52.9767 28.3742 52.3609 28.4787 51.7436 28.4536C50.4816 28.4365 49.277 27.9232 48.3906 27.0247C47.5042 26.1263 47.0073 24.9149 47.0073 23.6527C47.0073 22.3906 47.5042 21.1792 48.3906 20.2807C49.277 19.3822 50.4816 18.8689 51.7436 18.8518C52.9558 18.836 54.1253 19.2991 54.998 20.1406L56.2707 18.8679C55.6753 18.2784 54.9681 17.8138 54.1907 17.5012C53.4134 17.1886 52.5814 17.0343 51.7436 17.0474C50.8681 17.0347 49.9988 17.1961 49.1862 17.5224C48.3737 17.8486 47.6341 18.3331 47.0104 18.9477C46.3868 19.5623 45.8916 20.2948 45.5535 21.1025C45.2155 21.9103 45.0414 22.7771 45.0414 23.6527C45.0414 24.5283 45.2155 25.3952 45.5535 26.2029C45.8916 27.0107 46.3868 27.7431 47.0104 28.3578C47.6341 28.9724 48.3737 29.4569 49.1862 29.7831C49.9988 30.1093 50.8681 30.2708 51.7436 30.258C52.5991 30.2935 53.4523 30.1467 54.2467 29.8273C55.0411 29.5078 55.7584 29.0231 56.3512 28.4053C57.4036 27.2566 57.9646 25.7416 57.914 24.1844C57.9181 23.8063 57.8857 23.4286 57.8172 23.0567H51.7436ZM97.0519 24.4582C96.7963 23.6879 96.3097 23.0149 95.6583 22.5306C95.0069 22.0464 94.2223 21.7745 93.4109 21.7517C92.8644 21.7551 92.3243 21.8693 91.8232 22.0873C91.3222 22.3054 90.8705 22.6228 90.4955 23.0203C90.1206 23.4179 89.8301 23.8873 89.6417 24.4003C89.4534 24.9133 89.371 25.4591 89.3995 26.0048C89.3872 26.564 89.4877 27.1199 89.6951 27.6394C89.9024 28.1589 90.2123 28.6312 90.6063 29.0282C91.0003 29.4252 91.4703 29.7387 91.9881 29.95C92.506 30.1613 93.0611 30.2661 93.6204 30.258C94.3211 30.2619 95.0117 30.0917 95.6303 29.7627C96.2489 29.4337 96.7761 28.9562 97.1646 28.3731L95.7147 27.4065C95.4975 27.7673 95.1902 28.0653 94.8231 28.2715C94.4559 28.4777 94.0415 28.5849 93.6204 28.5825C93.1871 28.5991 92.7588 28.4851 92.3911 28.2553C92.0234 28.0255 91.7332 27.6905 91.5582 27.2937L97.2453 24.9416L97.0519 24.4582ZM91.2522 25.876C91.2322 25.5665 91.2741 25.256 91.3755 24.9629C91.4769 24.6697 91.6357 24.3997 91.8428 24.1687C92.0498 23.9377 92.3008 23.7502 92.5811 23.6174C92.8614 23.4846 93.1654 23.409 93.4753 23.395C93.798 23.3738 94.1198 23.448 94.4006 23.6085C94.6813 23.7689 94.9087 24.0085 95.0542 24.2972L91.2522 25.876ZM86.6284 30.0002H88.4972V17.4986H86.6284V30.0002ZM83.5674 22.7022H83.503C83.2189 22.3935 82.8721 22.1491 82.486 21.9852C82.0998 21.8212 81.683 21.7417 81.2636 21.7517C80.1669 21.7984 79.1306 22.2669 78.3711 23.0594C77.6116 23.8519 77.1876 24.9072 77.1876 26.0049C77.1876 27.1026 77.6116 28.1578 78.3711 28.9503C79.1306 29.7429 80.1669 30.2114 81.2636 30.258C81.6847 30.2692 82.1031 30.1886 82.4899 30.0216C82.8766 29.8547 83.2223 29.6055 83.503 29.2914H83.5674V29.9036C83.5674 31.5308 82.6975 32.4007 81.2958 32.4007C80.8287 32.3896 80.3754 32.2396 79.9939 31.9699C79.6123 31.7002 79.3196 31.323 79.1532 30.8863L77.526 31.563C77.8327 32.3097 78.3553 32.9478 79.027 33.3956C79.6986 33.8433 80.4886 34.0803 81.2958 34.0762C83.4869 34.0762 85.3396 32.7874 85.3396 29.6458V22.0094H83.5674V22.7022ZM81.4248 28.5825C80.7789 28.5278 80.177 28.2325 79.7384 27.7551C79.2999 27.2778 79.0565 26.6531 79.0565 26.0049C79.0565 25.3566 79.2999 24.732 79.7384 24.2547C80.177 23.7773 80.7789 23.482 81.4248 23.4272C81.7462 23.4429 82.0611 23.5232 82.3508 23.6631C82.6404 23.8031 82.899 24 83.111 24.2421C83.3229 24.4841 83.484 24.7663 83.5846 25.072C83.6851 25.3776 83.7231 25.7003 83.6963 26.0209C83.7214 26.3396 83.682 26.66 83.5805 26.963C83.4789 27.2661 83.3173 27.5456 83.1052 27.7847C82.8931 28.0238 82.635 28.2178 82.3463 28.3548C82.0576 28.4919 81.7442 28.5694 81.4248 28.5825ZM105.806 17.4988H101.335V30.0002H103.2V25.2638H105.806C106.334 25.2928 106.862 25.2138 107.358 25.0318C107.854 24.8497 108.308 24.5684 108.692 24.2051C109.076 23.8417 109.381 23.4039 109.59 22.9184C109.799 22.4329 109.907 21.9099 109.907 21.3813C109.907 20.8528 109.799 20.3298 109.59 19.8443C109.381 19.3588 109.076 18.921 108.692 18.5576C108.308 18.1943 107.854 17.913 107.358 17.7309C106.862 17.5489 106.334 17.4699 105.806 17.4988ZM105.854 23.524H103.2V19.2387H105.854C106.139 19.2328 106.423 19.2839 106.688 19.3889C106.953 19.4939 107.194 19.6508 107.398 19.8504C107.602 20.0499 107.764 20.2881 107.874 20.551C107.985 20.8139 108.042 21.0962 108.042 21.3814C108.042 21.6666 107.985 21.9489 107.874 22.2118C107.764 22.4747 107.602 22.7129 107.398 22.9124C107.194 23.112 106.953 23.2688 106.688 23.3739C106.423 23.4789 106.139 23.5299 105.854 23.524ZM117.386 21.7287C116.705 21.689 116.027 21.8489 115.435 22.1889C114.844 22.5289 114.365 23.0341 114.056 23.6426L115.713 24.3342C115.877 24.0322 116.126 23.7846 116.429 23.6218C116.732 23.459 117.075 23.3879 117.418 23.4174C117.891 23.3712 118.363 23.5146 118.731 23.816C119.099 24.1175 119.332 24.5525 119.38 25.0257V25.1544C118.781 24.8361 118.112 24.6704 117.434 24.6719C115.649 24.6719 113.831 25.653 113.831 27.4865C113.849 27.8729 113.943 28.2519 114.11 28.601C114.277 28.9501 114.512 29.2621 114.801 29.5186C115.091 29.7751 115.429 29.9709 115.795 30.0942C116.162 30.2176 116.55 30.2661 116.935 30.2367C117.405 30.2644 117.874 30.1656 118.292 29.9506C118.711 29.7356 119.064 29.4124 119.316 29.0144H119.38V29.9794H121.181V25.1866C121.181 22.9671 119.525 21.7287 117.386 21.7287ZM117.161 28.5801C116.549 28.5801 115.697 28.2746 115.697 27.5186C115.697 26.5537 116.758 26.1837 117.675 26.1837C118.271 26.1679 118.859 26.3123 119.38 26.6019C119.311 27.1442 119.049 27.6433 118.641 28.0069C118.233 28.3706 117.707 28.5742 117.161 28.5801ZM127.743 22.0021L125.604 27.4221H125.54L123.32 22.0021H121.31L124.639 29.5773L122.741 33.7911H124.687L129.818 22.0021H127.743ZM110.936 30.0002H112.802V17.4988H110.936V30.0002Z" fill="white"/>
<path d="M14.4353 7.53812C14.1074 7.93019 13.9418 8.43281 13.9725 8.94302V31.0591C13.9417 31.5693 14.1073 32.072 14.4353 32.464L14.5093 32.5361L26.8983 20.1472V19.8549L14.5093 7.46552L14.4353 7.53812Z" fill="url(#paint0_linear_1860_2239)"/>
<path d="M31.0277 24.2786L26.8983 20.1472V19.8549L31.0287 15.7245L31.1218 15.7776L36.0146 18.5577C37.4122 19.3517 37.4122 20.6509 36.0146 21.4454L31.1218 24.2255L31.0277 24.2786Z" fill="url(#paint1_linear_1860_2239)"/>
<path d="M31.1218 24.225L26.8983 20.0011L14.4353 32.464C14.7201 32.7152 15.0837 32.8588 15.4633 32.87C15.8428 32.8812 16.2143 32.7593 16.5134 32.5254L31.1218 24.225Z" fill="url(#paint2_linear_1860_2239)"/>
<path d="M31.1218 15.7771L16.5134 7.47672C16.2143 7.24281 15.8428 7.1209 15.4633 7.13212C15.0837 7.14333 14.7201 7.28696 14.4353 7.53812L26.8983 20.0011L31.1218 15.7771Z" fill="url(#paint3_linear_1860_2239)"/>
<path opacity="0.2" d="M31.0287 24.132L16.5134 32.3793C16.2258 32.5983 15.8748 32.7177 15.5134 32.7196C15.152 32.7216 14.7997 32.6059 14.5098 32.39L14.4353 32.4645L14.5093 32.5366L14.5098 32.5361C14.7997 32.7521 15.1519 32.8678 15.5134 32.8659C15.8749 32.864 16.2259 32.7445 16.5134 32.5254L31.1218 24.225L31.0287 24.132Z" fill="black"/>
<path opacity="0.12" d="M14.4353 32.3184C14.1074 31.9264 13.9419 31.4237 13.9725 30.9135V31.0596C13.9418 31.5698 14.1074 32.0725 14.4353 32.4645L14.5098 32.39L14.4353 32.3184Z" fill="black"/>
<path opacity="0.12" d="M36.0146 21.2988L31.0287 24.132L31.1218 24.225L36.0146 21.4449C36.3024 21.32 36.5515 21.1202 36.7358 20.8664C36.9202 20.6125 37.0331 20.3139 37.0629 20.0015C37.001 20.2844 36.8741 20.5489 36.6921 20.7741C36.5101 20.9993 36.2781 21.179 36.0146 21.2988Z" fill="black"/>
<path opacity="0.25" d="M16.5134 7.62334L36.0146 18.7033C36.2783 18.8232 36.5103 19.0029 36.6923 19.2282C36.8743 19.4535 37.0012 19.7182 37.0629 20.0011C37.0334 19.6887 36.9205 19.3899 36.7361 19.1359C36.5517 18.8819 36.3026 18.6821 36.0146 18.5572L16.5134 7.47724C15.1158 6.68314 13.9725 7.34274 13.9725 8.94354V9.08964C13.9725 7.48894 15.1158 6.82934 16.5134 7.62334Z" fill="white"/>
</g>
<g clip-path="url(#clip2_1860_2239)">
<path d="M275.249 3.84473e-05H161.757C161.343 3.84473e-05 160.934 3.84473e-05 160.522 0.00203845C160.176 0.00403845 159.834 0.00984845 159.485 0.0147384C158.727 0.0226403 157.972 0.0817147 157.224 0.191448C156.478 0.303571 155.755 0.514954 155.08 0.818448C154.405 1.12451 153.789 1.52221 153.254 1.99711C152.715 2.47068 152.266 3.01805 151.924 3.6182C151.581 4.21715 151.344 4.85898 151.219 5.52152C151.094 6.18322 151.026 6.85256 151.017 7.52352C151.007 7.83012 151.006 8.13774 151 8.44438V31.5586C151.006 31.8691 151.007 32.1699 151.017 32.4805C151.026 33.1515 151.094 33.8208 151.219 34.4824C151.343 35.1454 151.581 35.7876 151.924 36.3867C152.266 36.9849 152.715 37.5301 153.254 38.001C153.787 38.4781 154.404 38.876 155.08 39.1797C155.755 39.484 156.478 39.6967 157.224 39.8105C157.972 39.9194 158.727 39.9785 159.485 39.9873C159.834 39.9941 160.176 39.998 160.522 39.998C160.934 40 161.343 40 161.757 40H275.249C275.655 40 276.067 40 276.472 39.998C276.816 39.998 277.169 39.9941 277.512 39.9873C278.268 39.979 279.023 39.9199 279.769 39.8105C280.518 39.6959 281.243 39.4833 281.921 39.1797C282.597 38.8758 283.213 38.4779 283.746 38.001C284.283 37.5283 284.733 36.9835 285.079 36.3867C285.42 35.7871 285.655 35.145 285.777 34.4824C285.903 33.8207 285.973 33.1515 285.987 32.4805C285.991 32.1699 285.991 31.8691 285.991 31.5586C286 31.1953 286 30.834 286 30.4648V9.53617C286 9.16996 286 8.80668 285.991 8.44438C285.991 8.13774 285.991 7.83012 285.987 7.52348C285.973 6.85246 285.903 6.18327 285.777 5.52148C285.655 4.85932 285.419 4.21754 285.079 3.61816C284.383 2.41523 283.278 1.43606 281.921 0.818358C281.243 0.515606 280.518 0.304279 279.769 0.191358C279.023 0.0811412 278.269 0.0220462 277.512 0.0145984C277.169 0.00971845 276.816 0.00385845 276.472 0.00190845C276.067 -9.15527e-05 275.655 -9.15527e-05 275.249 -9.15527e-05V3.84473e-05Z" fill="#A6A6A6"/>
<path d="M160.43 39.1281C160.086 39.1281 159.75 39.1242 159.408 39.1174C158.7 39.1092 157.994 39.0547 157.296 38.9542C156.644 38.8549 156.013 38.6702 155.423 38.4062C154.839 38.1444 154.306 37.8011 153.845 37.3894C153.377 36.9826 152.987 36.5108 152.691 35.9926C152.392 35.4711 152.185 34.9121 152.078 34.3351C151.961 33.715 151.899 33.0881 151.89 32.4597C151.882 32.2487 151.873 31.5464 151.873 31.5464V8.44098C151.873 8.44098 151.883 7.74942 151.89 7.54625C151.898 6.9188 151.961 6.29284 152.077 5.67379C152.185 5.09519 152.392 4.53457 152.691 4.01134C152.986 3.49355 153.373 3.02137 153.838 2.6131C154.303 2.20096 154.837 1.85587 155.423 1.59042C156.011 1.32725 156.641 1.14385 157.291 1.04636C157.992 0.944908 158.701 0.890056 159.411 0.882269L160.431 0.870056H276.57L277.602 0.882759C278.306 0.89016 279.008 0.944522 279.702 1.04538C280.359 1.14409 280.995 1.32877 281.59 1.59335C282.763 2.12831 283.718 2.97466 284.32 4.01378C284.614 4.5334 284.818 5.08945 284.924 5.66305C285.042 6.28718 285.107 6.91806 285.121 7.55065C285.124 7.83391 285.124 8.13818 285.124 8.44098C285.133 8.81606 285.133 9.17306 285.133 9.533V30.466C285.133 30.8294 285.133 31.184 285.124 31.5415C285.124 31.8667 285.124 32.1647 285.12 32.4714C285.106 33.0927 285.042 33.7123 284.927 34.3253C284.821 34.9064 284.615 35.4698 284.316 35.9956C284.018 36.5081 283.631 36.9759 283.169 37.3816C282.707 37.7955 282.173 38.1408 281.587 38.4043C280.993 38.6704 280.358 38.8557 279.702 38.9542C279.004 39.0552 278.297 39.1097 277.59 39.1174C277.259 39.1242 276.912 39.1281 276.576 39.1281L275.35 39.1301L160.43 39.1281Z" fill="black"/>
<path d="M183.797 20.3007C183.808 19.4661 184.03 18.6477 184.442 17.9217C184.854 17.1958 185.443 16.5858 186.154 16.1487C185.702 15.5035 185.106 14.9726 184.413 14.598C183.721 14.2235 182.95 14.0156 182.163 13.991C180.483 13.8147 178.856 14.9958 178 14.9958C177.128 14.9958 175.81 14.0085 174.391 14.0377C173.474 14.0673 172.579 14.3342 171.795 14.8122C171.012 15.2903 170.365 15.9633 169.918 16.7655C167.984 20.114 169.427 25.035 171.28 27.7416C172.206 29.067 173.29 30.5474 174.707 30.4949C176.094 30.4374 176.612 29.6104 178.287 29.6104C179.945 29.6104 180.431 30.4949 181.878 30.4615C183.366 30.4374 184.304 29.1303 185.198 27.7924C185.864 26.848 186.377 25.8043 186.717 24.6999C185.852 24.3342 185.114 23.722 184.595 22.9397C184.076 22.1574 183.798 21.2396 183.797 20.3007Z" fill="white"/>
<path d="M181.066 12.2109C181.877 11.2367 182.277 9.98454 182.18 8.72031C180.94 8.85053 179.795 9.44309 178.973 10.3799C178.57 10.8376 178.262 11.37 178.066 11.9468C177.87 12.5236 177.789 13.1334 177.829 13.7413C178.449 13.7477 179.063 13.6133 179.623 13.3482C180.184 13.0831 180.677 12.6943 181.066 12.2109Z" fill="white"/>
<path d="M201.331 27.1397H196.597L195.461 30.4961H193.456L197.939 18.0781H200.022L204.505 30.4961H202.466L201.331 27.1397ZM197.088 25.5908H200.84L198.99 20.1436H198.938L197.088 25.5908Z" fill="white"/>
<path d="M214.188 25.9698C214.188 28.7832 212.682 30.5908 210.41 30.5908C209.834 30.621 209.262 30.4884 208.758 30.2082C208.254 29.9281 207.839 29.5117 207.561 29.0068H207.518V33.4912H205.66V21.4424H207.459V22.9483H207.493C207.784 22.4458 208.205 22.0316 208.713 21.7498C209.221 21.4679 209.795 21.329 210.376 21.3477C212.673 21.3477 214.188 23.1641 214.188 25.9698ZM212.278 25.9698C212.278 24.1368 211.331 22.9317 209.885 22.9317C208.465 22.9317 207.51 24.1621 207.51 25.9698C207.51 27.794 208.465 29.0157 209.885 29.0157C211.331 29.0157 212.278 27.8194 212.278 25.9698Z" fill="white"/>
<path d="M224.153 25.9697C224.153 28.7832 222.647 30.5908 220.375 30.5908C219.799 30.621 219.226 30.4883 218.723 30.2082C218.219 29.9281 217.804 29.5117 217.526 29.0068H217.483V33.4912H215.625V21.4424H217.423V22.9483H217.458C217.749 22.4458 218.17 22.0316 218.678 21.7498C219.186 21.4679 219.76 21.329 220.34 21.3477C222.638 21.3477 224.153 23.1641 224.153 25.9697ZM222.243 25.9697C222.243 24.1367 221.296 22.9317 219.85 22.9317C218.43 22.9317 217.475 24.1621 217.475 25.9697C217.475 27.794 218.43 29.0156 219.85 29.0156C221.296 29.0156 222.243 27.8194 222.243 25.9697H222.243Z" fill="white"/>
<path d="M230.739 27.0362C230.877 28.2676 232.073 29.0762 233.708 29.0762C235.274 29.0762 236.401 28.2676 236.401 27.1572C236.401 26.1933 235.721 25.6162 234.112 25.2207L232.503 24.833C230.222 24.2822 229.164 23.2158 229.164 21.4853C229.164 19.3427 231.031 17.8711 233.682 17.8711C236.306 17.8711 238.105 19.3427 238.166 21.4853H236.29C236.177 20.2461 235.153 19.498 233.656 19.498C232.159 19.498 231.134 20.2549 231.134 21.3564C231.134 22.2344 231.789 22.751 233.389 23.1464L234.757 23.4824C237.305 24.0849 238.364 25.1084 238.364 26.9247C238.364 29.248 236.513 30.7031 233.57 30.7031C230.816 30.7031 228.957 29.2822 228.837 27.0361L230.739 27.0362Z" fill="white"/>
<path d="M242.375 19.2998V21.4424H244.096V22.9141H242.375V27.9053C242.375 28.6807 242.719 29.042 243.476 29.042C243.681 29.0385 243.885 29.0241 244.088 28.999V30.4619C243.747 30.5255 243.401 30.5543 243.055 30.5479C241.222 30.5479 240.507 29.8594 240.507 28.1035V22.9141H239.191V21.4424H240.507V19.2998H242.375Z" fill="white"/>
<path d="M245.093 25.9698C245.093 23.1211 246.771 21.3311 249.387 21.3311C252.012 21.3311 253.682 23.1211 253.682 25.9698C253.682 28.8262 252.021 30.6084 249.387 30.6084C246.755 30.6084 245.093 28.8262 245.093 25.9698ZM251.789 25.9698C251.789 24.0157 250.893 22.8623 249.387 22.8623C247.882 22.8623 246.987 24.0244 246.987 25.9698C246.987 27.9317 247.882 29.0762 249.387 29.0762C250.893 29.0762 251.789 27.9317 251.789 25.9698H251.789Z" fill="white"/>
<path d="M255.214 21.4424H256.987V22.9834H257.03C257.15 22.5021 257.432 22.0768 257.828 21.7789C258.225 21.481 258.712 21.3287 259.208 21.3477C259.422 21.3469 259.635 21.3702 259.844 21.417V23.1553C259.574 23.0727 259.292 23.0347 259.009 23.043C258.739 23.032 258.47 23.0796 258.22 23.1825C257.971 23.2854 257.746 23.4411 257.562 23.639C257.378 23.8369 257.239 24.0723 257.155 24.329C257.07 24.5856 257.042 24.8575 257.073 25.126V30.4961H255.214L255.214 21.4424Z" fill="white"/>
<path d="M268.413 27.8369C268.163 29.4805 266.562 30.6084 264.514 30.6084C261.88 30.6084 260.246 28.8438 260.246 26.0127C260.246 23.1729 261.889 21.3311 264.436 21.3311C266.941 21.3311 268.516 23.0518 268.516 25.7969V26.4336H262.122V26.5459C262.092 26.8791 262.134 27.2148 262.244 27.5306C262.354 27.8465 262.53 28.1353 262.761 28.3778C262.991 28.6204 263.27 28.8111 263.58 28.9374C263.89 29.0637 264.223 29.1227 264.557 29.1104C264.996 29.1515 265.437 29.0498 265.814 28.8204C266.191 28.5909 266.483 28.246 266.648 27.8369L268.413 27.8369ZM262.13 25.1348H266.657C266.674 24.8352 266.628 24.5354 266.523 24.2542C266.419 23.973 266.257 23.7164 266.049 23.5007C265.84 23.2849 265.589 23.1146 265.312 23.0003C265.034 22.8861 264.736 22.8305 264.436 22.8369C264.134 22.8351 263.834 22.8933 263.553 23.008C263.273 23.1228 263.019 23.2918 262.805 23.5055C262.59 23.7191 262.42 23.9731 262.305 24.2527C262.189 24.5324 262.13 24.8322 262.13 25.1348V25.1348Z" fill="white"/>
<path d="M196.855 8.73104C197.244 8.70309 197.635 8.76195 197.999 8.90338C198.363 9.04481 198.692 9.26529 198.96 9.54892C199.229 9.83254 199.431 10.1722 199.552 10.5435C199.674 10.9148 199.711 11.3084 199.662 11.6959C199.662 13.6021 198.632 14.6979 196.855 14.6979H194.699V8.73104H196.855ZM195.626 13.854H196.751C197.029 13.8707 197.308 13.825 197.567 13.7204C197.825 13.6158 198.057 13.4549 198.246 13.2493C198.434 13.0437 198.574 12.7987 198.656 12.5321C198.738 12.2655 198.76 11.984 198.719 11.708C198.757 11.4332 198.733 11.1534 198.65 10.8888C198.567 10.6241 198.426 10.3811 198.238 10.1772C198.05 9.97325 197.819 9.81344 197.562 9.7092C197.305 9.60497 197.028 9.55888 196.751 9.57425H195.626V13.854Z" fill="white"/>
<path d="M200.709 12.4444C200.681 12.1485 200.715 11.8499 200.808 11.5678C200.902 11.2858 201.054 11.0264 201.254 10.8064C201.454 10.5864 201.698 10.4107 201.97 10.2904C202.241 10.1701 202.535 10.108 202.833 10.108C203.13 10.108 203.424 10.1701 203.696 10.2904C203.968 10.4107 204.211 10.5864 204.411 10.8064C204.611 11.0264 204.763 11.2858 204.857 11.5678C204.951 11.8499 204.984 12.1485 204.956 12.4444C204.985 12.7406 204.952 13.0396 204.858 13.3221C204.764 13.6046 204.613 13.8645 204.413 14.0849C204.213 14.3053 203.969 14.4814 203.697 14.6019C203.425 14.7225 203.13 14.7848 202.833 14.7848C202.535 14.7848 202.241 14.7225 201.969 14.6019C201.696 14.4814 201.453 14.3053 201.253 14.0849C201.053 13.8645 200.901 13.6046 200.807 13.3221C200.714 13.0396 200.68 12.7406 200.709 12.4444ZM204.042 12.4444C204.042 11.4683 203.604 10.8975 202.834 10.8975C202.062 10.8975 201.627 11.4683 201.627 12.4444C201.627 13.4283 202.062 13.9947 202.834 13.9947C203.604 13.9947 204.042 13.4244 204.042 12.4444H204.042Z" fill="white"/>
<path d="M210.602 14.6978H209.68L208.749 11.3814H208.679L207.752 14.6978H206.839L205.598 10.1949H206.499L207.306 13.6309H207.372L208.298 10.1949H209.151L210.076 13.6309H210.147L210.949 10.1949H211.838L210.602 14.6978Z" fill="white"/>
<path d="M212.882 10.1949H213.737V10.9102H213.804C213.916 10.6533 214.106 10.4379 214.347 10.2941C214.588 10.1503 214.868 10.0852 215.148 10.1079C215.367 10.0915 215.587 10.1245 215.791 10.2046C215.996 10.2847 216.18 10.4098 216.33 10.5707C216.479 10.7315 216.591 10.924 216.656 11.1338C216.721 11.3436 216.738 11.5654 216.706 11.7827V14.6977H215.818V12.0059C215.818 11.2823 215.503 10.9224 214.846 10.9224C214.697 10.9155 214.549 10.9408 214.411 10.9966C214.272 11.0525 214.148 11.1375 214.046 11.2459C213.944 11.3543 213.866 11.4834 213.819 11.6246C213.771 11.7657 213.755 11.9154 213.771 12.0635V14.6978H212.882L212.882 10.1949Z" fill="white"/>
<path d="M218.122 8.43704H219.011V14.6978H218.122V8.43704Z" fill="white"/>
<path d="M220.246 12.4444C220.218 12.1484 220.252 11.8499 220.346 11.5678C220.44 11.2857 220.591 11.0263 220.791 10.8064C220.991 10.5864 221.235 10.4106 221.507 10.2903C221.779 10.17 222.073 10.1079 222.37 10.1079C222.667 10.1079 222.961 10.17 223.233 10.2903C223.505 10.4106 223.749 10.5864 223.949 10.8064C224.149 11.0263 224.3 11.2857 224.394 11.5678C224.488 11.8499 224.522 12.1484 224.494 12.4444C224.523 12.7406 224.489 13.0396 224.395 13.3221C224.302 13.6046 224.15 13.8645 223.95 14.0849C223.75 14.3053 223.506 14.4814 223.234 14.6019C222.962 14.7225 222.668 14.7847 222.37 14.7847C222.072 14.7847 221.778 14.7225 221.506 14.6019C221.234 14.4814 220.99 14.3053 220.79 14.0849C220.59 13.8645 220.438 13.6046 220.344 13.3221C220.251 13.0396 220.217 12.7406 220.246 12.4444ZM223.579 12.4444C223.579 11.4683 223.141 10.8975 222.371 10.8975C221.599 10.8975 221.164 11.4683 221.164 12.4444C221.164 13.4283 221.599 13.9947 222.371 13.9947C223.141 13.9947 223.579 13.4244 223.579 12.4444H223.579Z" fill="white"/>
<path d="M225.429 13.4244C225.429 12.6138 226.033 12.1465 227.104 12.0801L228.324 12.0098V11.6212C228.324 11.1456 228.009 10.877 227.402 10.877C226.906 10.877 226.562 11.0591 226.464 11.3775H225.603C225.694 10.6041 226.422 10.108 227.443 10.108C228.572 10.108 229.209 10.67 229.209 11.6212V14.6978H228.353V14.065H228.283C228.14 14.292 227.94 14.477 227.702 14.6013C227.464 14.7255 227.198 14.7844 226.93 14.772C226.741 14.7917 226.55 14.7715 226.369 14.7128C226.189 14.6541 226.022 14.5582 225.881 14.4312C225.739 14.3042 225.626 14.149 225.548 13.9756C225.471 13.8022 225.43 13.6144 225.429 13.4244ZM228.324 13.0396V12.6631L227.224 12.7335C226.604 12.775 226.323 12.9859 226.323 13.3829C226.323 13.7881 226.674 14.024 227.158 14.024C227.3 14.0383 227.443 14.024 227.579 13.9819C227.715 13.9398 227.841 13.8708 227.95 13.779C228.058 13.6871 228.148 13.5743 228.212 13.4473C228.276 13.3203 228.314 13.1816 228.324 13.0396Z" fill="white"/>
<path d="M230.377 12.4444C230.377 11.0215 231.108 10.1202 232.246 10.1202C232.527 10.1072 232.806 10.1746 233.051 10.3145C233.295 10.4544 233.495 10.661 233.627 10.9102H233.693V8.43704H234.582V14.6978H233.73V13.9864H233.66C233.518 14.2338 233.312 14.4379 233.062 14.5764C232.813 14.7148 232.531 14.7825 232.246 14.772C231.1 14.772 230.377 13.8707 230.377 12.4444ZM231.295 12.4444C231.295 13.3995 231.745 13.9742 232.498 13.9742C233.247 13.9742 233.71 13.3912 233.71 12.4483C233.71 11.5098 233.242 10.9185 232.498 10.9185C231.75 10.9185 231.295 11.4971 231.295 12.4444H231.295Z" fill="white"/>
<path d="M238.258 12.4444C238.23 12.1485 238.264 11.8499 238.358 11.5678C238.452 11.2858 238.603 11.0264 238.803 10.8064C239.003 10.5864 239.247 10.4107 239.519 10.2904C239.791 10.1701 240.085 10.108 240.382 10.108C240.679 10.108 240.973 10.1701 241.245 10.2904C241.517 10.4107 241.761 10.5864 241.961 10.8064C242.161 11.0264 242.312 11.2858 242.406 11.5678C242.5 11.8499 242.534 12.1485 242.505 12.4444C242.534 12.7406 242.501 13.0396 242.407 13.3221C242.314 13.6046 242.162 13.8645 241.962 14.0849C241.762 14.3053 241.518 14.4814 241.246 14.6019C240.974 14.7225 240.68 14.7848 240.382 14.7848C240.084 14.7848 239.79 14.7225 239.518 14.6019C239.246 14.4814 239.002 14.3053 238.802 14.0849C238.602 13.8645 238.45 13.6046 238.357 13.3221C238.263 13.0396 238.23 12.7406 238.258 12.4444ZM241.591 12.4444C241.591 11.4683 241.153 10.8975 240.383 10.8975C239.611 10.8975 239.176 11.4683 239.176 12.4444C239.176 13.4283 239.611 13.9947 240.383 13.9947C241.153 13.9947 241.591 13.4244 241.591 12.4444Z" fill="white"/>
<path d="M243.698 10.1949H244.553V10.9102H244.62C244.732 10.6533 244.922 10.4379 245.163 10.2941C245.404 10.1503 245.684 10.0852 245.964 10.1079C246.183 10.0915 246.403 10.1245 246.607 10.2046C246.812 10.2847 246.996 10.4098 247.145 10.5707C247.295 10.7315 247.407 10.924 247.472 11.1338C247.537 11.3436 247.554 11.5654 247.522 11.7827V14.6977H246.633V12.0059C246.633 11.2823 246.319 10.9224 245.662 10.9224C245.513 10.9155 245.364 10.9408 245.226 10.9966C245.088 11.0525 244.964 11.1375 244.862 11.2459C244.76 11.3543 244.682 11.4834 244.635 11.6246C244.587 11.7657 244.571 11.9154 244.587 12.0635V14.6978H243.698V10.1949Z" fill="white"/>
<path d="M252.544 9.07376V10.2154H253.519V10.9639H252.544V13.2793C252.544 13.751 252.738 13.9576 253.18 13.9576C253.294 13.9572 253.407 13.9503 253.519 13.937V14.6773C253.36 14.7058 253.198 14.721 253.036 14.7227C252.047 14.7227 251.654 14.375 251.654 13.5069V10.9639H250.939V10.2153H251.654V9.07376H252.544Z" fill="white"/>
<path d="M254.733 8.43704H255.614V10.9185H255.684C255.802 10.6592 255.998 10.4426 256.243 10.2982C256.489 10.1539 256.773 10.0888 257.057 10.1119C257.275 10.1 257.493 10.1364 257.695 10.2184C257.898 10.3005 258.079 10.4261 258.227 10.5865C258.376 10.7468 258.486 10.9379 258.552 11.146C258.618 11.3541 258.637 11.5742 258.608 11.7906V14.6978H257.718V12.0098C257.718 11.2906 257.383 10.9263 256.756 10.9263C256.603 10.9138 256.449 10.9348 256.305 10.9878C256.162 11.0409 256.031 11.1247 255.923 11.2334C255.815 11.3422 255.732 11.4732 255.68 11.6173C255.628 11.7615 255.608 11.9152 255.622 12.0679V14.6978H254.733L254.733 8.43704Z" fill="white"/>
<path d="M263.79 13.482C263.669 13.8935 263.407 14.2495 263.051 14.4876C262.694 14.7258 262.265 14.8309 261.838 14.7847C261.542 14.7925 261.247 14.7357 260.974 14.6182C260.702 14.5007 260.458 14.3252 260.26 14.1041C260.063 13.883 259.915 13.6214 259.828 13.3376C259.742 13.0538 259.718 12.7545 259.758 12.4605C259.719 12.1656 259.743 11.8657 259.83 11.581C259.916 11.2963 260.063 11.0336 260.26 10.8105C260.457 10.5874 260.699 10.4092 260.971 10.288C261.242 10.1668 261.537 10.1054 261.835 10.108C263.087 10.108 263.843 10.964 263.843 12.378V12.688H260.664V12.7378C260.65 12.9031 260.671 13.0694 260.725 13.2262C260.779 13.3829 260.865 13.5266 260.978 13.6481C261.091 13.7695 261.228 13.8661 261.38 13.9315C261.533 13.9969 261.697 14.0297 261.863 14.0278C262.075 14.0534 262.291 14.0151 262.482 13.9179C262.672 13.8207 262.83 13.6689 262.934 13.4819L263.79 13.482ZM260.664 12.0308H262.938C262.949 11.8797 262.929 11.7279 262.878 11.5852C262.827 11.4424 262.747 11.312 262.642 11.2021C262.538 11.0922 262.412 11.0054 262.272 10.9473C262.132 10.8891 261.981 10.8608 261.83 10.8643C261.676 10.8624 261.523 10.8912 261.381 10.9492C261.239 11.0071 261.109 11.093 261.001 11.2017C260.892 11.3104 260.806 11.4398 260.748 11.5822C260.69 11.7246 260.662 11.8771 260.664 12.0308H260.664Z" fill="white"/>
</g>
</g>
<defs>
<filter id="filter0_d_1860_2239" x="0" y="3.05176e-05" width="290" height="48.0002" filterUnits="userSpaceOnUse" color-interpolation-filters="sRGB">
<feFlood flood-opacity="0" result="BackgroundImageFix"/>
<feColorMatrix in="SourceAlpha" type="matrix" values="0 0 0 0 0 0 0 0 0 0 0 0 0 0 0 0 0 0 127 0" result="hardAlpha"/>
<feOffset dy="4"/>
<feGaussianBlur stdDeviation="2"/>
<feComposite in2="hardAlpha" operator="out"/>
<feColorMatrix type="matrix" values="0 0 0 0 0 0 0 0 0 0 0 0 0 0 0 0 0 0 0.25 0"/>
<feBlend mode="normal" in2="BackgroundImageFix" result="effect1_dropShadow_1860_2239"/>
<feBlend mode="normal" in="SourceGraphic" in2="effect1_dropShadow_1860_2239" result="shape"/>
</filter>
<linearGradient id="paint0_linear_1860_2239" x1="25.7996" y1="8.70983" x2="9.01724" y2="25.4922" gradientUnits="userSpaceOnUse">
<stop stop-color="#00A0FF"/>
<stop offset="0.00657" stop-color="#00A1FF"/>
<stop offset="0.2601" stop-color="#00BEFF"/>
<stop offset="0.5122" stop-color="#00D2FF"/>
<stop offset="0.7604" stop-color="#00DFFF"/>
<stop offset="1" stop-color="#00E3FF"/>
</linearGradient>
<linearGradient id="paint1_linear_1860_2239" x1="37.8343" y1="20.0016" x2="13.6374" y2="20.0016" gradientUnits="userSpaceOnUse">
<stop stop-color="#FFE000"/>
<stop offset="0.4087" stop-color="#FFBD00"/>
<stop offset="0.7754" stop-color="#FFA500"/>
<stop offset="1" stop-color="#FF9C00"/>
</linearGradient>
<linearGradient id="paint2_linear_1860_2239" x1="28.8269" y1="22.2962" x2="6.06857" y2="45.0545" gradientUnits="userSpaceOnUse">
<stop stop-color="#FF3A44"/>
<stop offset="1" stop-color="#C31162"/>
</linearGradient>
<linearGradient id="paint3_linear_1860_2239" x1="11.2972" y1="0.176298" x2="21.4598" y2="10.3388" gradientUnits="userSpaceOnUse">
<stop stop-color="#32A071"/>
<stop offset="0.0685" stop-color="#2DA771"/>
<stop offset="0.4762" stop-color="#15CF74"/>
<stop offset="0.8009" stop-color="#06E775"/>
<stop offset="1" stop-color="#00F076"/>
</linearGradient>
<clipPath id="clip0_1860_2239">
<rect width="282" height="40.0002" fill="white" transform="translate(4)"/>
</clipPath>
<clipPath id="clip1_1860_2239">
<rect width="135" height="40.0002" fill="white" transform="translate(4)"/>
</clipPath>
<clipPath id="clip2_1860_2239">
<rect width="135" height="40" fill="white" transform="translate(151)"/>
</clipPath>
</defs>
</svg>
